<?xml version="1.0" encoding="UTF-8"?><svg id="d" xmlns="http://www.w3.org/2000/svg" viewBox="0 0 440.2 470.29"><defs><style>.e{fill:#fff;}</style></defs><polygon class="e" points="16.5 118.29 .5 118.21 .94 30.25 88.5 30.25 88.5 46.25 16.86 46.25 16.5 118.29"/><polygon class="e" points="352.16 45.66 352.24 29.66 440.2 30.1 440.2 117.66 424.2 117.66 424.2 46.02 352.16 45.66"/><polygon class="e" points="424.2 381.66 440.2 381.74 439.76 469.7 352.2 469.7 352.2 453.7 423.84 453.7 424.2 381.66"/><polygon class="e" points="88.54 454.29 88.46 470.29 .5 469.85 .5 382.29 16.5 382.29 16.5 453.93 88.54 454.29"/><g><path class="e" d="m154.78,73.08v-9.74h19.49V14.62h-19.49V4.87h38.98v58.46h19.49v9.74h-58.46Z"/><path class="e" d="m282.23,14.62h9.74v19.49h-9.74v9.74h-38.98v29.23h-19.49V4.87h58.46v9.74Zm-9.74,19.49V14.62h-29.23v19.49h29.23Z"/></g></svg>