<?xml version="1.0" encoding="UTF-8"?>
<svg id="c" xmlns="http://www.w3.org/2000/svg" viewBox="0 0 440 440">
    <defs>
        <style>
            .f {
                fill: #fff;
            }
        </style>
    </defs>
    <path class="f"
        d="m352.47,431.15c-2.15-5.15-3.66-10.48-5.62-15.7-.48-1.28-1.03-2.5-1.65-3.69-.03-.03-.06-.05-.09-.08-7.5-2.85-14.81-6.18-22.23-9.22-2.32-.05-4.65-.1-6.98-.08-15.21,5.88-31.04,10.09-46.8,14.23-.49.54-1.12.95-1.85,1.15-2.72.74-5.52,1.1-8.33.8-.32-.03-.62-.09-.92-.18-6.11,2.24-12.4,3.92-18.87,4.78-.09.01-.17,0-.25,0-.2.27-.51.49-.94.59-7.47,1.72-14.83,3.9-22.43,4.95-.29.04-.56.01-.8-.06-.25.26-.18.59.13.98.62.79,1.37,1.49,2.12,2.16.94.84,1.97,1.57,2.91,2.41.89.8,1.72,1.65,2.54,2.52.89.93,1.74,1.89,2.61,2.84h131.12c-1.25-2.79-2.48-5.59-3.66-8.42Z" />
    <path class="f"
        d="m373.19,425.01c-3.81-1.06-17-6.38-17.7-6.39.06.23-.43,1.45-.36,1.68.12.31,3.46,15.36,5.33,19.46l12.72-.19c.47-.35.89-.83,1.41-1.04.8-.33,1.61-.62,2.42-.88.47-.52,1.17-.87,2.11-.87h1.07c.75-.17,1.51-.3,2.26-.41-1.92-2.56-3.77-5.17-5.56-7.82-1.26-1.16-2.5-2.34-3.72-3.54Z" />
    <path class="f"
        d="m57.58,439.57h22.63c-.54-.78-1.02-1.61-1.62-2.34-2.77-3.36-5.54-6.72-8.37-10.03-.74-.87-1.46-1.86-2.99-2.37.17.97.28,1.67.41,2.37.22,1.15-.34,1.77-1.44,1.44-.97-.28-1.9-.72-2.82-1.15-1.84-.86-3.65-1.79-5.49-2.63-.06-.03-.13-.05-.19-.08,0,.24-.02.48-.09.74-.3,1.26-.66,2.5-1.05,3.73.34,3.44.67,6.88,1,10.33Z" />
    <path class="f" d="m119.72,368.28c.08.23.14.48.18.75.06-.61.11-1.23.16-1.84-.11.36-.23.73-.34,1.09Z" />
    <path class="f"
        d="m133.67,400.25c-.35-2.01-.68-4.02-1.07-6.02-.08-.43-.35-.82-.53-1.23-.87,1.49-.74,2.95-.62,4.41.11,1.4.34,2.81.27,4.2-.18,3.51-.43,7.01-.8,10.5-.24,2.24-.69,4.46-1.14,6.67-.14.71-.77.97-1.33.53-.36-.28-.64-.75-.78-1.2-.42-1.34-.78-2.71-1.13-4.07-1.9-7.36-3.78-14.72-5.68-22.08-.61-2.38-1.23-4.75-1.63-7.14-.1,3.93.15,7.77.53,11.7.17,1.76.27,3.5.3,5.22,1.37,5.1,1.27,10.3.04,15.65-.78,3.37-1.89,6.64-3,9.91-.03.17-.07.34-.13.52-.5,1.49-1.03,2.96-1.52,4.45-.49,1.55-.94,3.12-1.32,4.7-.36,1.48-1.47,2.11-2.62,2.1-.07.17-.13.34-.2.51h3.38c.28-.52.61-1.03.84-1.58,2.35-5.54,4.69-11.08,7.04-16.62.47-1.12,1.48-1.25,2.18-.26.56.79.93,1.78,1.14,2.74.92,4.24,2.78,8.11,4.69,11.96.14.29.56.66.81.63.35-.04.74-.36.98-.66.2-.25.25-.65.33-.99,1.37-6.28,1.82-12.67,1.82-19.06,0-5.16.07-10.34-.83-15.46Z" />
    <path class="f"
        d="m102.39,413.92c-1.66,2.82-3.35,5.61-5.57,8.08-.13.15-.27.28-.42.4.25.69.22,1.5-.25,2.33-2.7,4.79-4.75,9.69-5.76,14.84h10.74c.28-2.69.63-5.38.83-8.07.41-5.65,1.02-11.27,2.22-16.82.22-1.01.42-2.02.61-3.03-.78.78-1.6,1.53-2.4,2.27Z" />
    <path class="f"
        d="m151.03,439.57c-1.12-4.13-1.73-8.39-3.6-12.32-1.47-3.07-2.71-6.26-3.94-9.43-.45-1.17-.64-2.44-.87-3.69-.06-.32.19-.69.3-1.04.3.18.73.28.89.54,1.88,3.09,3.72,6.21,5.58,9.31.34.57.69,1.16,1.16,1.61.81.78,1.71.52,1.8-.58.15-1.75.24-3.53.07-5.26-.36-3.64-.91-7.25-1.36-10.88-.06-.49,0-1,0-1.5.12-.02.23-.05.35-.07.16.2.37.37.49.59,2.02,3.89,3.22,8,3.62,12.38.36,3.99.21,7.92-.56,11.86-.35,1.82-.25,3.72-.54,5.55-.16,1.01-.69,1.95-1.05,2.93h-2.33Z" />
    <path class="f"
        d="m237.43,283.58c-1.26-.73-1.88-.34-2.85.36-1.07.78-2.47,1.04-3.7.41-.76-.39-1.4-.49-2.19-.33-1.34.28-1.86.03-2.5-1.14-.27-.49-.48-1.02-.83-1.77.47.17.7.32.94.33.23.02.58-.01.7-.16.55-.7.08-1.86-.71-2.29-.44-.24-.92-.78-1.01-1.25-.23-1.28-1.08-2.49-.51-3.88.04-.11-.04-.27-.08-.41-.27-.87-.55-1.74-.8-2.61-.04-.15.01-.34.05-.51.17-.82-.27-.88-.91-.79-.61.09-1.24.17-1.85.12-1.04-.1-2.06-.41-3.1-.44-2.5-.07-5.02.16-7.5-.09-2.08-.21-4.11-.04-6.07.43-3.09.74-4.74,2.98-2.34,5.92.18.22.36.45.5.7.71,1.2,1.44,2.39,2.08,3.63.35.68.01,1.17-.75,1.09-1.1-.11-2.04-.46-2.58-1.55-.8-1.61-1.67-3.18-2.45-4.8-.38-.8-.88-1.33-1.81-1.39-1.58-.11-3.15-.36-4.72-.33-1.28.02-2.66.39-3.1,1.77-.69,2.14-1.66,4.09-2.94,5.92-.7,1.01-1.24,1.31-2.67.94.07-.36.08-.74.21-1.08.69-1.77,1.3-3.59,2.15-5.28.53-1.04.53-1.96-.15-2.73-.65-.74-1.47-1.51-2.36-1.8-1.55-.51-3.22-.85-4.85-.9-3.8-.13-7.61-.09-11.41-.01-1.32.03-2.64.37-3.94.63-.61.12-.97.49-.84,1.22.21,1.15.66,2.3,0,3.48-.13.23.05.69.18,1.01.3.71.63,1.42,1.02,2.09.81,1.41.83,1.4-.62,2.58-.23-.45-.42-.86-.65-1.25-.24-.41-.46-.87-.82-1.15-.24-.19-.7-.13-1.06-.18.05.38,0,.83.17,1.13.19.32.59.54.94.74.46.27.57.53.08.85-1.18.77-.87,1.99-1.12,3.18.38-.07.58-.14.78-.13.32.02.7,0,.94.16.11.07.06.65-.11.8-.23.22-.65.4-.95.36-1.55-.21-3.09-.47-4.62-.76-1.02-.19-2.03-.47-3.05-.69-.43-.1-.99-.37-1.29-.2-.5.28-.99.41-1.46.44,2.16,5.44,3.15,11.4,4.02,17.35,1.13,2.79,2.33,5.56,3.39,8.38,3.4,4.04,6.92,7.97,10.42,11.92,2.94,3.32,5.77,6.66,8.35,10.27.12.16.23.33.34.49,1.55,1.43,3.21,2.74,5.05,3.83.66.39,1.25.91,1.9,1.31.73.45,1.46,1.02,2.27,1.22,3.07.74,6.2.92,9.31.28,1.28-.26,2.56-.71,3.73-1.3.55-.28,1.07-.62,1.58-.97,1.86-.5,6.15-4.88,7.14-5.62,5.36-3.99,7.75-8.98,11.81-14.07,1.96-2.45,3.98-4.5,6.3-6.6.11-.72.45-1.45,1.1-2.11,2.36-2.42,4.28-5.2,6.32-7.88.16-.28.32-.56.48-.85,1.19-4.49,2.75-8.9,3.59-13.48.14-.75.25-1.52.35-2.28-.32-.03-.63-.11-.93-.28Z" />
    <path class="f"
        d="m95.19,375.51c-4.09,2.59-8.14,5.24-12.25,7.8-3.76,4.24-8.58,6.84-13.79,8.69-.09.22-.22.43-.38.64-.4.49-.84.95-1.29,1.38-.06.13-.13.27-.21.4-3.72,5.7-6.46,12.24-7.59,18.96.66.76,1.33,1.5,2.03,2.23,2.03,2.11,3.88,4.34,5.67,6.66,1.99,2.57,3.53,5.55,6.36,7.4.19.13.29.39.44.58,1.28,1.63,2.19,3.55,3.82,4.92,1.06.89,1.42.87,1.89-.47.33-.96.47-2,.87-2.93,2.17-5.04,4.27-10.12,6.62-15.08,2.92-6.18,4.79-12.54,5.18-19.43.32-5.78,1.27-11.52,2-17.27.2-1.55.54-3.09.85-4.63-.07.05-.14.1-.21.15Z" />
    <path class="f"
        d="m253.21,296.49c.55-2.27,1.19-4.46,1.99-6.53-.4.02-.79-.03-1.16-.13-.31,0-.62.01-.93.01-.15,0-.29,0-.43-.03-.77.41-1.51.25-2.05-.21-.76,1.41-1.24,2.97-1.53,4.62-.56,3.15-1.02,6.33-1.78,9.44-.79,3.24-1.87,6.42-2.85,9.62-1.69,5.52-3.26,11.08-5.16,16.52-1.73,4.95-4.26,9.48-8.08,13.23-1.44,1.41-2.9,1.99-4.84,1.36-1.11-.36-2.12,0-2.88.84-.53.6-1.01,1.28-1.36,1.99-.61,1.26-1.53,2.16-2.71,2.87-3.57,2.15-7.53,3.3-11.47,4.5-.69.21-1.54.45-1.92.97-1.03,1.45-2.52,2.11-4.04,2.76-1.47.63-2.75,1.46-3.97,2.53-1.54,1.35-3.33,2.39-5.02,3.57-.14.1-.34.09-.47.2-.68.58-1.46,1.02-2.32,1.27-1.43.41-2.78,1.46-4.26,1.76-2.68.53-4.82,2.2-7.28,3.18-.02,0,0,.07-.01.1.75.67,1.17.69,1.93.28.33-.17.79-.15,1.18-.12,1.25.08,2.57.53,3.72.24,1.59-.39,3.06-1.29,4.56-2.02,1.48-.72,2.93-1.49,4.39-2.26.21-.11.36-.33.55-.47.33-.23.67-.46,1.03-.66.6-.34,1.23-.64,1.83-1,1.05-.62,2.03-1.63,3.15-1.81,2.51-.41,4.55-1.6,6.54-3.02,3.61-2.57,7.46-4.66,11.77-5.84.84-.23,1.64-.63,2.44-1.01,1.29-.62,2.21-1.51,2.53-3.03.13-.63.66-1.45,1.2-1.81,1.46-.96,3.05-1.68,4.91-1.43,1.2.16,2.07-.43,2.78-1.38.86-1.14,1.78-2.23,2.68-3.35.29-.36.72-.97.97-1.35.62-.99,1.2-2.01,1.82-3.01.4-.65.92-1.24,1.23-1.92.51-1.11.84-2.31,1.34-3.43,1.54-3.47,3.46-6.78,3.99-10.63.11-.81.67-1.56,1.01-2.33.15.05.3.11.45.16l-1.7,6.49.24.19c.12-.09.25-.17.37-.25-.24-.88-.18-1.9.32-2.97.16-.33.29-.67.41-1.02,0-.25.04-.52.11-.78.35-1.43.72-2.86,1.1-4.29-.08-.03-.16-.05-.24-.08.15-2.08.73-4.01,1.86-5.77,1.4-4.91,2.85-9.81,4.05-14.78Z" />
    <path class="f"
        d="m244.56,417.08c-.33-1.98-.67-3.96-1.17-5.9-.67-2.59-1.55-5.12-2.21-7.7-.26-1.02-.62-1.88-1.3-2.69-.46-.54-.9-1.4-.81-2.04.16-1.14.44-2.52,1.19-3.26,1.22-1.19,1.89-2.55,2.66-3.99.54-1.01.95-1.89.91-3.01-.02-.66.11-1.33.14-2,.07-1.72.14-3.44.18-5.16.03-1.3.02-2.59.03-3.89,0-1.92.05-3.85.01-5.77-.01-.88-.44-1.44-1.43-1.46-2.27-.04-4.55-.23-6.82-.16-3.4.1-6.7.77-9.84,2.14-.76.33-1.62.49-2.44.57-3.49.35-7,.63-10.49.98-1.92.19-3.87.81-5.73.6-2.19-.25-4.26.09-6.38.23-2.38.15-4.76.13-7.14.18-.79.01-1.6-.15-2.35.01-2.26.48-4.49,1.15-6.76,1.58-1.22.23-2.37,1.4-2.27,2.68.05.62.4.73.94.71,3.61-.14,7.22-.26,10.82-.38.21,0,.43.01.64.05,4,.7,7.98.26,11.97-.17,2.4-.26,4.81-.47,7.21-.74.78-.09,1.54-.36,2.32-.47,1.72-.24,3.44-.44,5.16-.64.37-.04.38.32,2.52-.58.8-.34,6.19-1.82,6.92-1.98.91-.19,1.86-.26,2.75-.52,1.07-.32,2.08-.39,3.06.18,2.22,1.3,3.89,2.81,3.66,5.82-.22,2.8.04,5.65-.93,8.35-.68,1.9-1.5,3.76-2.27,5.67.02.01.08.04.13.07.1.06.2.12.32.21-2.82,1.92-3.06,4.93-3.59,8.08-.14-.43-.23-.59-.24-.75-.02-.19-.05-.37-.09-.55-.07,0-.14-.02-.2-.05.02,0,.04.02,0,0-.02,0-.04-.02-.06-.02-.05-.02-.1-.04-.15-.06-.09-.03-.19-.07-.28-.1-.2-.07-.4-.13-.6-.21-.19-.07-.38-.15-.56-.23-.23-.05-.45-.13-.66-.26-.39-.25-.77-.55-1.09-.89-1.67-.59-3.28-1.33-5-1.82-1.23-.35-2.54-.59-3.66-1.2-.36.01-.72.03-1.08.06-.69.06-1.36.02-1.96-.15,0,0,0,0,0,0-2,.84-2.2,1.55-.83,3.28.15.19.33.36.52.5,1.24.93,2.48,1.85,3.73,2.76,3.44,2.51,6.88,5.04,10.93,6.54,1.76.65,2.37,1.23,2.31-1.43,0-.1.05-.2.08-.3.08-.03.17-.07.25-.1.15.4.36.79.45,1.2.24,1.06.38,2.15.65,3.2.57,2.21,1.2,4.41,1.78,6.61.12.45.31.84.61,1.05.04,0,.08-.02.13-.03.61-.08,1.22-.17,1.83-.27,1.07-.4,2.12-.86,3.15-1.34.27-.12.51-.72.45-1.05Zm-9.65-10.17c-.21-.9-.42-1.81-.63-2.71.18-.04.36-.08.54-.13l.64,2.72c-.18.04-.37.08-.55.11Z" />
    <path class="f"
        d="m181.36,374.09c-.23.11-.57.16-.69.34-.41.65-.72,1.37-1.14,2.02-.18.28-.59.65-.82.6-.29-.05-.57-.46-.76-.77-.11-.19-.1-.49-.05-.72.18-.93-.27-1.57-.94-2.09-.53-.4-1.08-.8-1.66-1.12-4.16-2.28-7.99-4.92-10.52-9.08-.07-.11-.21-.19-.31-.28-2.05-1.81-4.13-3.59-6.13-5.46-1.97-1.84-4.06-3.48-6.5-4.65-3.43-1.64-6.97-3.07-10.3-4.9-9.35-5.13-17.53-11.84-25.13-19.28-1.63-1.6-3.04-3.42-4.66-5.02-1.5-1.47-3.27-2.68-4.74-4.19-2.78-2.84-5.38-5.85-8.14-8.7-.91-.94-1.58-1.97-1.91-3.11-2.06.2-4.12.25-6.22-.04.02.34.13.7.28.94.8,1.24,1.71,2.4,2.63,3.56.43.54.96,1,1.46,1.48.53.5,1.09.96,1.61,1.47.35.34.58.83.97,1.09,2.11,1.41,3.89,3.13,5.59,5.03,3.1,3.48,6.6,6.58,10.33,9.37,3.1,2.32,6.2,4.64,9.22,7.05,1.76,1.4,3.3,3.08,5.11,4.4,3.05,2.21,6.19,4.3,9.38,6.3,2.26,1.42,4.65,2.62,6.99,3.9,2.34,1.27,4.71,2.5,7.05,3.79.89.49,1.64,1.32,2.57,1.64,2.55.88,4.69,2.26,6.43,4.32.7.82,1.59,1.48,2.34,2.26,1.08,1.13,2.11,2.32,3.18,3.46.74.78,1.71,1.42,2.23,2.32,1.09,1.88,2.54,3.23,4.49,4.14.88.41,1.83.9,2.4,1.64.7.91,1.55,1.69,2.59,2.18,1.98.94,2.59,1.04,3.03-.58.23-.84.56-1.66.8-2.5.07-.26-.03-.56-.06-.84Z" />
    <path class="f"
        d="m207.93,244.73c-1.05-1.85-2.16-3.67-3.37-5.43-.54-.1-1.09-.2-1.63-.31-1,1.74-2.05,3.46-3.13,5.16-.21.33-.48.54-.76.65-.28,1.8-.55,3.61-.83,5.42-.21,1.38-.4,2.77-.59,4.15-.1.98.23,1.34,1.36,1.31,1.89-.06,3.64.25,5.18,1.42.2.15.55.26.78.19,2.29-.67,4.58-1.36,6.85-2.09.08-.03.16-.06.23-.1-1.21-3.37-2.76-6.63-4-10.01-.05-.13-.07-.25-.09-.36Z" />
    <path class="f"
        d="m178.19,254.36c-.22-.92-.34-1.87-.59-2.78-.12-.45-.26-.9-.39-1.35-.29-.11-.56-.33-.77-.68-.28-.46-.56-.92-.85-1.37-.54.09-1.13-.11-1.54-.73-.67-1-1.32-2-1.96-3.01-1.38,1.28-2.99,2.34-4.58,3.43-.61,1.78-1.39,3.51-2.28,5.18.38.06.76.13,1.13.21,1.92.43,3.81,1.04,5.73,1.44,1.68.35,3.4.55,5.11.77.79.1,1.22-.21,1-1.1Z" />
    <path class="f"
        d="m187.09,250.88c-.58-1.25-1.32-2.45-1.92-3.69-.03-.04-.07-.06-.08-.15l-.78-.93c-.25-.06-.51-.21-.74-.45-.14-.14-.26-.29-.39-.43-.51,1.25-1.04,2.49-1.64,3.71-.42.86-1.4.92-2.12.53-.16,1.33-.33,2.66-.49,3.99.07,0,.14.02.2.02,0,.46.02.92,0,1.37-.1,1.62,1.29,2,2.29,2.58.78.45,1.47-.26,2.13-.77.56-.44,1.22-.81,1.9-1.03.58-.19,1.25-.12,1.88-.18.8-.07,1.28-.4.96-1.3-.39-1.09-.7-2.21-1.18-3.26Z" />
    <path class="f"
        d="m215.5,252.67c.22.47.45.94.67,1.42,1.44-.2,2.88-.46,4.31-.7-.28-2.68-.59-5.42-1.45-7.86-.53-.32-.97-.78-1.24-1.36-.06-.14-.12-.28-.19-.41-.46,1.26-.98,2.5-1.64,3.69-.14.25-.33.42-.54.54-.16,1.22-.3,2.44-.43,3.66.16.34.33.68.49,1.02Z" />
    <path class="f"
        d="m228.59,388.75c-1.35-.21-2.54-.33-3.7-.61-.39-.1-.69-.59-1.03-.9.35-.29.68-.77,1.06-.81.67-.08,1.39.04,2.05.22.95.25,1.69.15,2.55-.43.53-.35,1.58-.31,2.18-.02.88.42.72,1.48-.21,1.81-.98.34-2.02.52-2.9.74Z" />
</svg>