<?xml version="1.0" encoding="UTF-8"?>
<svg id="c" xmlns="http://www.w3.org/2000/svg" viewBox="0 0 440 440">
    <defs>
        <style>
            .e {
                fill: #e71aff;
            }
        </style>
    </defs>
    <path class="e"
        d="m224.97,439.77c-.87-.95-1.72-1.91-2.61-2.84-.82-.86-1.66-1.72-2.54-2.52-.94-.84-1.97-1.57-2.91-2.41-.75-.67-1.5-1.38-2.12-2.16-.48-.6-.39-1.07.55-1.33,2.84-.8,5.63-1.79,8.47-2.59,4.6-1.3,9.22-2.5,13.83-3.75.54-.15,1.09-.28,1.63-.44,1.44-.43,2.84-1.04,4.31-1.27,3.9-.61,7.48-2.2,11.19-3.42.57-.19,1.13-.42,1.72-.51,3.66-.6,6.99-2.12,10.3-3.69,6.35-3.03,12.68-6.11,19.02-9.18,6.61-3.2,13.11-6.65,20.06-9.1,3.09-1.09,6.1-2.37,9.19-3.46,1.15-.41,2.41-.49,3.6-.78.99-.24,1.94-.69,2.94-.81,1.2-.14,2.49-.25,3.63.03,5.03,1.25,9.99,2.74,14.2,5.97.17.13.39.23.49.4,1.69,2.85,4.56,4.87,5.64,8.2.58,1.79,1.6,3.44,2.51,5.11,1.75,3.18,2.71,6.62,3.75,10.07,1.76,5.82,3.73,11.58,5.61,17.37.34,1.04.62,2.09.94,3.14h-133.38Z" />
    <path class="e"
        d="m360.46,439.77c-1.51-5.42-3.03-10.83-4.55-16.25-.2-.71-.46-1.41-.62-2.13-.47-2.11.08-3.32,2.07-4.15,1.95-.81,4-1.38,5.95-2.18,4.56-1.87,9.08-3.83,13.63-5.72.74-.31,1.53-.55,2.31-.73,2.36-.53,4.04.72,4.01,3.11-.02,1.68-.33,3.35-.5,5.03-.03.32-.04.65-.07,1.26,1.05-.92,1.27-1.92,1.4-2.9.16-1.18.21-2.38.23-3.57.04-1.58,0-3.17.02-4.75.02-1.15.58-1.41,1.66-1,1.69.64,2.92,1.77,3.91,3.24.41.61.91,1.16,1.41,1.7,2.88,3.04,5.71,6.13,8.69,9.06,1.46,1.44,3.18,2.64,4.89,3.8.52.35,1.76.52,1.99.24.46-.59.76-1.61.58-2.32-1.31-5.21-3.2-10.16-6.08-14.75-2.14-3.42-4.87-6.04-8.37-7.96-1.22-.67-2.23-1.74-3.45-2.41-1.72-.94-3.51-1.77-5.34-2.48-1.23-.48-2.58-.68-3.88-1-.44-.11-.94-.12-1.33-.32-2.52-1.28-5.06-2.53-7.51-3.93-.96-.55-1.72-1.44-2.55-2.2-.54-.49-.33-.9.26-1.09.31-.1.7-.08,1.03-.01,2.09.43,4.19.86,6.27,1.36,6.26,1.5,12.61,2.73,18.63,5.08,4.33,1.69,7.89,4.53,10.74,8.14,2.26,2.86,4.29,5.92,6.16,9.05,1.13,1.88,1.72,4.08,2.63,6.1.49,1.08,1.08,2.13,1.72,3.12.29.45.77.98,1.24,1.08,1.3.27,1.47,1.25,1.9,2.24.56,1.31,1.36,2.53,2.17,3.71,1.21,1.73,2.48,3.42,3.8,5.07.59.72,1.34,1.33,2.08,1.91,1.04.81,1.22,1.43.74,2.63-.29.72-.42,1.49-.71,2.21-.38.93-.84,1.84-1.26,2.75h-34.88c0-2.7-.99-5.07-2.75-7.03-2.4-2.68-4.15-5.65-4.97-9.17-.23-.99-.68-1.94-1.03-2.91-.15,0-.3.02-.44.02-.09.55-.32,1.11-.25,1.63.11.86.32,1.74.66,2.54,1.53,3.68,3.12,7.32,5.93,10.27.48.51.26.91-.41,1.02-.31.05-.63.03-.95.03-4.42,0-8.67.87-12.75,2.55-.52.22-.94.69-1.41,1.04h-12.68Z" />
    <path class="e"
        d="m10,401.93c.23-1.06.46-2.12.68-3.19.18-.89.66-1.11,1.53-.88,2.01.52,3.25,1.99,4.56,3.42,4.27,4.67,8.74,9.06,14.7,11.61,3.3,1.41,6.67,2.74,9.72,4.6,3.54,2.16,7.42,3.36,11.16,4.98.96.41,1.8,1.1,2.74,1.54.89.42,1.87.62,2.76,1.03,1.85.84,3.65,1.77,5.49,2.63.92.43,1.85.86,2.82,1.15,1.1.32,1.66-.29,1.44-1.44-.13-.7-.24-1.39-.41-2.37,1.52.51,2.24,1.5,2.99,2.37,2.83,3.31,5.61,6.67,8.37,10.03.6.73,1.08,1.56,1.62,2.34h-46.93c-.58-.7-1.11-1.45-1.76-2.07-1.25-1.19-2.69-2.19-3.83-3.46-2.2-2.46-4.21-5.09-6.36-7.6-2.69-3.15-5.5-6.21-8.13-9.42-.98-1.2-1.73-2.64-2.29-4.09-.51-1.32-.61-2.8-.89-4.21,0-2.33,0-4.65,0-6.98Z" />
    <path class="e"
        d="m430,390.09c-.71,3.16-1.36,6.33-2.14,9.47-.5,2.01-1.1,4.01-1.82,5.95-.35.96-1.19,1.74-1.6,2.69-.97,2.26-1.76,4.6-2.73,6.86-.3.69-.96,1.22-1.45,1.82-.17-.04-.33-.07-.5-.11-.11-.79-.23-1.57-.34-2.36-.65-4.59-1.62-9.11-4.24-13.02-.87-1.3-2.26-2.31-3.54-3.27-1.77-1.33-3.86-2.28-5.46-3.77-1.88-1.76-3.39-3.92-5.04-5.93-.15-.18-.25-.68-.16-.74.25-.18.62-.33.93-.3,2.06.18,3.87,1,5.49,2.25,1.56,1.2,3.18,2.34,4.66,3.64,1.08.95,1.95,2.11,2.94,3.17.96,1.02,1.84,2.15,2.93,3.01,1.87,1.47,3.19,3.35,4.45,5.3.33.5.78.93,1.36,1.6.79-1.56,1.68-2.8,2.06-4.18.79-2.91.88-5.94.44-8.9-.52-3.56-2.45-6.51-4.86-9.09-2.98-3.19-6.01-6.34-9.16-9.36-2.76-2.65-5.75-5.06-8.57-7.65-2.17-1.99-4.36-3.93-7.25-4.76-1.79-.52-3.61-.95-5.43-1.33-3.55-.75-7.08-1.69-10.66-2.08-4.75-.51-9.41-1.67-14.23-1.69-2.84-.01-5.67-.37-8.51-.6-.43-.04-.85-.22-1.27-.34-.03-.11-.05-.22-.08-.33.61-.35,1.19-.83,1.85-1.02,5.12-1.42,10.22-2.93,15.4-4.1,3.29-.74,6.67-.6,10.07-.22,3.62.41,7.3.35,10.95.48.91.03,1.84-.06,2.74.06.72.09,1.41.42,2.12.64-.01.12-.03.23-.04.35-.32.09-.63.2-.96.25-3.23.51-6.47.99-9.69,1.54-.41.07-1.01.46-1.07.79-.07.41.22,1.03.55,1.32.43.38,1.05.54,1.61.76,1.73.69,3.44,1.43,5.2,2.03,2.06.71,4.12,1.49,6.25,1.9,4.86.93,8.83,3.35,12.31,6.75,3.02,2.95,6.15,5.8,9.03,8.89,2.22,2.38,4.2,5,6.15,7.61.65.87.9,2.05,1.33,3.09v2.96Z" />
    <path class="e"
        d="m111.25,439.77c.75-1.85,1.47-3.72,2.25-5.56,1.43-3.37,3.13-6.64,4.27-10.1,1.41-4.28,2.14-8.77,1.88-13.3-.15-2.65-.78-5.28-1.18-7.92-.23-1.56-.41-3.13-.64-4.69-.47-3.27-.98-6.53-1.41-9.8-.65-4.97-.88-9.97-.32-14.94.51-4.46,1.38-8.89,2.13-13.32.12-.72.42-1.42.71-2.09.11-.25.43-.57.65-.56.22,0,.61.35.64.57.13,1.32.33,2.65.22,3.96-.4,4.69-.68,9.41-1.45,14.04-.93,5.6.43,10.83,1.79,16.11,1.9,7.36,3.78,14.72,5.68,22.08.35,1.36.71,2.73,1.13,4.07.13.42.38.85.7,1.14.64.57,1.22.43,1.39-.41.45-2.23.91-4.47,1.15-6.73.37-3.49.62-7,.8-10.5.07-1.39-.16-2.8-.27-4.2-.11-1.46-.24-2.92.62-4.41.18.41.45.8.53,1.23.38,2,.71,4.01,1.07,6.02.9,5.12.83,10.3.83,15.46,0,6.4-.45,12.78-1.82,19.06-.07.34-.12.74-.33.99-.24.3-.63.62-.98.66-.25.03-.66-.34-.81-.63-1.91-3.85-3.77-7.71-4.69-11.96-.22-1-.62-2.04-1.22-2.85-.72-.97-1.62-.74-2.1.37-2.35,5.54-4.68,11.09-7.04,16.62-.23.55-.56,1.05-.84,1.58h-3.38Z" />
    <path class="e"
        d="m88.42,439.77c1.45-5.39,2.29-10.98,5.02-15.96,3.12-5.67,6.28-11.31,9.46-16.95.32-.57.8-1.07,1.27-1.54.72-.71,1.05-.62,1.23.35.12.65.2,1.35.09,1.99-.4,2.42-.82,4.83-1.34,7.22-1.2,5.55-1.81,11.17-2.22,16.82-.2,2.7-.55,5.38-.83,8.07h-12.68Z" />
    <path class="e"
        d="m150.99,439.77c-1.12-4.13-1.73-8.39-3.6-12.32-1.47-3.07-2.71-6.26-3.94-9.43-.45-1.17-.64-2.44-.87-3.69-.06-.32.19-.69.3-1.04.3.18.73.28.89.54,1.88,3.09,3.72,6.21,5.58,9.31.34.57.69,1.16,1.16,1.61.81.78,1.71.52,1.8-.58.15-1.75.24-3.53.07-5.26-.36-3.64-.91-7.25-1.36-10.88-.06-.49,0-1,0-1.5.12-.02.23-.05.35-.07.16.2.37.37.49.59,2.02,3.89,3.22,8,3.62,12.38.36,3.99.21,7.92-.56,11.86-.35,1.82-.25,3.72-.54,5.55-.16,1.01-.69,1.95-1.05,2.93h-2.33Z" />
    <path class="e"
        d="m99.62,188.23c-.36,2.53-.69,5.07-1.09,7.6-.53,3.37-1.19,6.71-1.63,10.09-.3,2.36-.3,4.76-.48,7.15-.03.35-.18.82-.44,1.01-1.23.87-1.75,2.16-1.91,3.52-.17,1.37-.04,2.79-.04,4.23.99.07,1.32-.6,1.68-1.3.49-.96.95-1.98,1.62-2.8.8-.98,1.36-.85,1.6.36.33,1.68.55,3.4.66,5.11.15,2.24.14,4.48.2,6.63-.81-.69-1.1-1.33-1.58-5.22-.23-1.88-.12-3.81-.3-5.76-1.65,1.8-2.95,3.85-5.25,5.3,0-.67-.04-1.11,0-1.54.18-1.6.32-3.21.62-4.79.2-1.06.51-2.15,1.03-3.09,1.38-2.52,1.67-5.24,1.91-8.02.31-3.6,1-7.18,1.1-10.79.08-2.79,1.17-5.17,2.06-7.67.07,0,.14,0,.21,0Z" />
    <path class="e"
        d="m15.28,439.77c-1.29-2.48-2.05-5.07-1.45-7.9.25-1.2.75-2.61,2.03-2.65,1.11-.03,1.68,1.3,2.03,2.4.05.17.11.33.14.51.41,2.69,1.23,5.24,2.54,7.63h-5.28Z" />
    <path class="e"
        d="m376.95,439.77c2.31-1.37,4.89-1.81,7.49-2.09.53-.06,1.09.24,1.64.37-.16.57-.31,1.14-.47,1.71h-8.67Z" />
    <path class="e"
        d="m160.61,284.16c.25-1.2-.05-2.41,1.12-3.18.49-.32.38-.58-.08-.85-.35-.2-.74-.42-.94-.74-.18-.3-.13-.75-.17-1.13.36.05.81-.02,1.06.18.35.28.58.75.82,1.15.23.39.42.81.65,1.26,1.45-1.18,1.44-1.17.62-2.58-.39-.67-.72-1.38-1.02-2.09-.13-.31-.31-.77-.18-1.01.66-1.18.2-2.33,0-3.48-.13-.73.23-1.1.84-1.22,1.31-.26,2.62-.6,3.94-.63,3.8-.08,7.61-.12,11.41.01,1.63.05,3.29.4,4.85.9.9.29,1.71,1.07,2.36,1.8.68.78.68,1.69.15,2.73-.85,1.69-1.47,3.5-2.15,5.28-.13.34-.14.73-.21,1.08,1.43.37,1.97.08,2.67-.94,1.28-1.84,2.25-3.79,2.94-5.92.44-1.38,1.82-1.75,3.1-1.77,1.57-.03,3.15.22,4.72.33.92.06,1.42.59,1.81,1.39.78,1.62,1.65,3.19,2.45,4.8.54,1.09,1.48,1.44,2.58,1.55.72.07,1.11-.39.78-1.03-.66-1.27-1.41-2.5-2.14-3.74-.2-.33-.46-.62-.69-.93-2.08-2.8-.43-4.92,2.56-5.64,1.96-.47,3.98-.63,6.07-.43,2.48.24,5,.02,7.5.09,1.04.03,2.06.35,3.1.44.61.06,1.24-.03,1.85-.12.65-.09,1.08-.03.91.79-.03.17-.09.36-.05.51.25.87.53,1.74.8,2.61.04.13.13.3.08.41-.57,1.39.28,2.6.51,3.88.09.47.56,1.01,1.01,1.25.8.43,1.27,1.59.71,2.29-.12.15-.46.18-.7.16-.24-.02-.47-.16-.94-.33.35.75.56,1.28.83,1.77.64,1.17,1.17,1.42,2.5,1.14.79-.17,1.43-.07,2.19.33,1.23.63,2.62.37,3.7-.41.97-.7,1.59-1.09,2.85-.36,1.13.65,2.54.1,3.69-.61.81-.5,1.57-1.07,2.4-1.53.3-.16.93-.25,1.04-.1.21.28.28.8.18,1.16-1.37,4.87-2.81,9.72-4.85,14.38-1.51,3.44-3.63,6.42-6.03,9.25-.43.51-.91.99-1.28,1.55-1.12,1.7-2.59,2.99-4.2,4.23-1.33,1.03-2.34,2.5-3.43,3.82-2.87,3.49-6.16,6.56-9.61,9.47-3.7,3.13-7.38,6.3-11.07,9.44-.37.32-.81.55-1.22.82-1.13.76-2.19,1.65-3.39,2.26-1.17.59-2.45,1.04-3.73,1.3-3.11.64-6.24.47-9.31-.28-.81-.2-1.54-.77-2.27-1.22-.66-.4-1.24-.92-1.9-1.31-3.06-1.82-5.59-4.21-8.01-6.8-2.83-3.03-5.94-5.8-8.93-8.68-1.26-1.21-2.67-2.21-3.71-3.7-1.03-1.47-2.5-2.64-3.8-3.93-3.11-3.08-5.99-6.34-8.33-10.06-.28-.44-.65-.83-1.03-1.2-.77-.75-1.24-1.59-1.58-2.65-.5-1.55-1.47-2.95-2.13-4.46-.66-1.5-1.26-3.04-1.78-4.59-.89-2.67-1.73-5.35-2.53-8.05-.33-1.11-.55-2.26-.72-3.4-.06-.4.15-.85.24-1.27.38.18.84.27,1.13.55,2.01,1.93,4.07,3.8,6.58,5.07,1.43.73,2.85,1.4,4.5.49.3-.17.86.11,1.29.2,1.02.22,2.03.5,3.05.69,1.54.29,3.08.55,4.62.76.3.04.72-.14.95-.36.16-.16.21-.73.1-.8-.24-.16-.62-.15-.94-.16-.2,0-.39.06-.78.13Z" />
    <path class="e"
        d="m95.55,374.6c-.35,1.86-.8,3.71-1.04,5.59-.74,5.75-1.68,11.49-2,17.27-.39,6.89-2.26,13.25-5.18,19.43-2.34,4.96-4.45,10.04-6.62,15.08-.4.93-.54,1.97-.87,2.93-.46,1.34-.83,1.36-1.88.47-1.64-1.37-2.54-3.29-3.82-4.92-.15-.19-.25-.46-.44-.58-2.84-1.85-4.38-4.83-6.36-7.4-1.79-2.31-3.64-4.55-5.67-6.66-2.17-2.25-4.17-4.68-6.06-7.16-1.94-2.54-3.73-5.21-5.48-7.89-.62-.95-1.1-2.06-1.4-3.16-.48-1.8.06-3.16,1.72-3.98,3.52-1.75,7.06-3.51,10.7-4.99,4.53-1.83,9.28-3.17,13.74-5.13,3.09-1.36,5.96-3.3,8.77-5.22,2.62-1.79,5.23-3.57,8.17-4.8.65-.27,1.25-.65,1.85-1.01,1.01-.61,1.59-.34,1.71.84.04.42,0,.84,0,1.27.06,0,.11.02.17.03Z" />
    <path class="e"
        d="m277.18,240.29c.64.65,1.08,1.07,1.49,1.52.47.52.9,1.09,1.39,1.59.21.21.59.49.79.42.87-.3,1.13.32,1.47.85.52.81.83,1.7,1.84,2.2.88.43.98,1.83.45,3.11.78-.47,1.23-.26,1.48.48.23.69.3,1.3-.46,1.74-.6.34-.99.68-.18,1.32.67.52.18,2.04-.75,2.54-1.11.6-1.08.71-.4,1.81.31.5.5,1.2.45,1.78-.13,1.61-.4,3.21-.64,4.81-.05.31-.12.69-.32.88-1.13,1.04-1.11,2.46-1.33,3.79-.17,1.04-.46,1.94-1.51,2.5-.42.22-.77.86-.86,1.37-.25,1.41-1.06,2.32-2.18,3.07-1.69,1.14-3.37,2.31-5.03,3.5-.26.19-.42.5-.63.76.29.17.6.3.85.51.38.31.96.62,1.03,1.01.18.98.43,2.13.09,2.99-1.59,4.07-2.62,8.3-3.95,12.44-1.12,3.46-3.39,6.31-5.88,8.92-1.8,1.89-3.64,3.74-5.53,5.53-3.08,2.92-5.8,6.12-8.35,9.51-1.14,1.51-2.46,2.89-3.76,4.28-.43.46-1.03.75-1.55,1.12-.08-.06-.16-.12-.24-.19.57-2.16,1.13-4.33,1.7-6.49-.15-.05-.3-.11-.45-.16-.35.78-.9,1.52-1.01,2.33-.54,3.86-2.45,7.17-3.99,10.63-.5,1.12-.83,2.31-1.34,3.43-.31.68-.83,1.27-1.23,1.92-.51.82-.99,1.65-1.49,2.47-.27.44-.52.91-.84,1.31-1.03,1.32-2.13,2.59-3.14,3.92-.72.95-1.58,1.53-2.78,1.38-1.84-.24-3.42.46-4.86,1.41-.58.38-1.1,1.16-1.24,1.84-.32,1.52-1.24,2.41-2.53,3.03-.79.38-1.59.78-2.44,1.01-4.31,1.18-8.15,3.27-11.77,5.84-1.99,1.41-4.03,2.61-6.54,3.02-1.12.18-2.1,1.19-3.15,1.81-.6.35-1.23.65-1.83.99-.35.2-.69.43-1.03.66-.2.14-.35.36-.55.47-1.46.77-2.91,1.54-4.39,2.26-1.5.73-2.97,1.63-4.56,2.02-1.15.28-2.47-.16-3.72-.24-.39-.03-.85-.05-1.18.12-.77.4-1.19.39-1.93-.28,0-.03,0-.09.01-.1,2.46-.98,4.61-2.65,7.28-3.18,1.07-.21,2.07-.82,3.08-1.3,1.2-.57,2.38-1.18,3.57-1.78.13-.06.28-.07.39-.15,1.69-1.17,3.48-2.22,5.02-3.57,1.22-1.07,2.49-1.9,3.97-2.53,1.52-.64,3-1.31,4.04-2.76.37-.52,1.23-.77,1.92-.97,3.94-1.2,7.9-2.35,11.47-4.5,1.18-.71,2.1-1.61,2.71-2.87.35-.72.82-1.4,1.36-1.99.76-.85,1.77-1.2,2.88-.84,1.94.63,3.4.05,4.84-1.36,3.82-3.74,6.35-8.28,8.08-13.23,1.9-5.44,3.47-11.01,5.16-16.52.98-3.2,2.06-6.37,2.85-9.62.76-3.11,1.22-6.28,1.78-9.44.54-3.04,1.71-5.79,4.08-7.79,1.67-1.41,3.61-2.52,5.45-3.74.83-.55,1.69-1.07,2.55-1.58.87-.51,1.77-.98,2.63-1.5.74-.45,1.55-.85,2.16-1.45.77-.75,1.64-1.12,2.65-1.4.72-.2,1.35-.78,2.01-1.19.05-.03.07-.13.12-.17,1.97-1.33,3.9-2.73,5.95-3.93.75-.44,1.39-.8,1.83-1.6.39-.7,1.08-1.22,1.56-1.88.51-.7,1.08-1.41,1.36-2.2.97-2.77,1.6-5.63,1.46-8.59-.07-1.45.15-2.8.94-4.03.38-.6.35-1.13-.12-1.74-.27-.35-.35-.91-.36-1.38-.09-3-1.93-4.58-4.86-4.15-.48.07-1,.15-1.46.04-.79-.2-1.4-.8-1.21-1.61.3-1.32.84-2.59,1.4-4.26Zm-27.56,71c-.11-.04-.21-.07-.32-.11-1.25,1.83-1.87,3.86-2.04,6.05.11.04.22.07.33.11.67-2.02,1.35-4.04,2.02-6.05Zm.15-1.65c.13.05.27.09.4.14.4-1.15.81-2.31,1.21-3.46-.13-.05-.25-.09-.38-.14-.41,1.15-.82,2.31-1.24,3.46Zm6.05-17.86c.12.08.24.16.36.25.33-.55.66-1.11.99-1.66-.12-.08-.24-.15-.37-.23-.33.55-.65,1.1-.98,1.64Z" />
    <path class="e"
        d="m373.7,336.99c1.17.07,2.35.18,3.52.19.62,0,1.64,0,1.79-.33.36-.76-.44-1.22-1.05-1.57-2.47-1.46-4.63-3.5-7.51-4.21-2.39-.59-4.81-1.04-7.2-1.63-4.35-1.06-8.77-.38-13.14-.66-3.22-.21-6.43-.57-9.61-1.11-1.26-.21-2.53-.91-3.59-1.68-1.88-1.36-1.85-3.62-.08-5.14.34-.3.72-.58,1.13-.76,7.07-3.15,14.04-6.57,21.57-8.52,2.75-.71,5.57-1.29,8.4-1.52,3.69-.31,7.27.58,10.71,1.94,3.11,1.22,6.2,2.49,9.33,3.67,2.29.86,3.42,2.48,3.79,4.87.4,2.6.09,5.15-.53,7.63-.96,3.89-2.1,7.74-3.26,11.58-.64,2.11-1.96,2.83-4.08,2.13-1.79-.59-3.48-1.51-5.22-2.26-1.22-.53-2.45-1.04-3.67-1.56-.47-.2-.93-.43-1.4-.64.03-.14.06-.28.09-.41Z" />
    <path class="e"
        d="m235.22,408c-.03.1-.08.2-.08.3.06,2.66-.55,2.08-2.31,1.43-4.05-1.49-7.49-4.02-10.93-6.54-1.22-.89-2.44-1.79-3.65-2.7-.22-.17-.44-.36-.61-.57-1.36-1.72-1.16-2.43.83-3.27,2.36-.99,4.65-.78,6.98.11,1.74.67,3.51,1.28,5.29,1.83,1.79.56,2.95,1.59,3.13,3.54.01.16.1.32.24.75.53-3.15.77-6.16,3.59-8.08-.13-.08-.22-.15-.32-.21-.09-.05-.18-.09-.13-.07.77-1.91,1.59-3.77,2.27-5.67.96-2.7.71-5.55.93-8.35.23-3.01-1.44-4.52-3.66-5.82-.98-.57-1.99-.5-3.06-.18-.89.26-1.84.33-2.75.52-.41.09-.79.28-1.19.4-2.5.72-5.01,1.44-7.52,2.14-.23.06-.49,0-.73.02-1.72.2-3.44.4-5.16.64-.78.11-1.54.38-2.32.47-2.4.27-4.81.48-7.21.74-3.99.43-7.97.87-11.98.17-.21-.04-.42-.05-.63-.05-3.61.12-7.22.24-10.82.38-.54.02-.89-.09-.94-.71-.1-1.28,1.06-2.45,2.27-2.68,2.27-.43,4.5-1.11,6.76-1.58.75-.16,1.57,0,2.35-.01,2.38-.04,4.77-.03,7.14-.18,2.13-.13,4.2-.47,6.38-.23,1.86.21,3.81-.41,5.73-.6,3.49-.35,7-.62,10.49-.98.83-.08,1.69-.24,2.44-.57,3.15-1.37,6.44-2.04,9.84-2.14,2.27-.07,4.55.12,6.82.16.99.02,1.42.58,1.43,1.46.03,1.92,0,3.85-.01,5.77,0,1.3,0,2.59-.03,3.89-.04,1.72-.11,3.44-.18,5.16-.03.67-.16,1.33-.14,2,.03,1.13-.38,2-.91,3.01-.77,1.44-1.44,2.81-2.66,3.99-.76.74-1.03,2.12-1.19,3.26-.09.64.35,1.5.81,2.04.69.81,1.04,1.67,1.3,2.69.65,2.59,1.54,5.12,2.21,7.7.5,1.94.83,3.92,1.17,5.9.06.33-.19.93-.45,1.05-1.39.65-2.8,1.25-4.26,1.73-.85.27-1.25-.37-1.46-1.14-.59-2.21-1.22-4.4-1.78-6.61-.27-1.05-.41-2.14-.65-3.2-.09-.41-.3-.8-.45-1.2-.08.03-.17.07-.25.1Zm-.35-.89c.18-.04.37-.08.55-.11-.21-.91-.42-1.81-.64-2.72-.18.04-.36.08-.54.13.21.9.42,1.81.63,2.71Z" />
    <path class="e"
        d="m113.51,254.06c-.15,1.42-.32,2.84-.46,4.26-.03.31-.02.63.01.94.33,3.29.07,6.32-2.61,8.81-1.91,1.78-3.66,3.82-5.15,5.97-2.17,3.14-3.03,6.87-3.95,10.53-1.16,4.61-2.37,9.21-3.43,13.84-.56,2.42-.98,4.9-1.2,7.37-.18,2,.67,3.73,2.1,5.22,2.76,2.86,5.37,5.86,8.14,8.7,1.47,1.5,3.24,2.71,4.74,4.19,1.63,1.6,3.03,3.42,4.66,5.02,7.59,7.44,15.78,14.14,25.13,19.28,3.33,1.83,6.87,3.25,10.3,4.9,2.43,1.17,4.53,2.81,6.5,4.65,2,1.86,4.09,3.64,6.13,5.46.11.09.24.16.31.28,2.53,4.16,6.37,6.8,10.52,9.08.58.32,1.13.72,1.66,1.12.68.52,1.13,1.15.94,2.09-.05.23-.06.54.05.72.19.31.46.72.76.77.24.04.64-.32.82-.6.42-.65.72-1.37,1.14-2.02.12-.18.45-.23.69-.34.02.28.13.59.06.84-.23.84-.57,1.65-.8,2.5-.36,1.34-.84,1.51-2.1,1-1.45-.58-2.58-1.46-3.58-2.67-.57-.7-1.5-1.17-2.34-1.57-1.95-.91-3.4-2.26-4.49-4.14-.52-.9-1.49-1.54-2.23-2.32-1.07-1.14-2.1-2.33-3.18-3.46-.75-.78-1.64-1.44-2.34-2.26-1.74-2.06-3.89-3.44-6.43-4.32-.93-.32-1.68-1.15-2.57-1.64-2.33-1.29-4.71-2.51-7.05-3.79-2.35-1.28-4.74-2.48-6.99-3.9-3.19-2-6.33-4.09-9.38-6.3-1.81-1.31-3.36-3-5.11-4.4-2.81-2.23-5.67-4.4-8.55-6.54-3.9-2.92-7.62-6.04-10.84-9.69-1.74-1.97-3.57-3.76-5.75-5.22-.39-.26-.62-.75-.97-1.09-.52-.51-1.08-.97-1.61-1.47-.5-.48-1.03-.94-1.46-1.48-.92-1.16-1.83-2.33-2.63-3.56-.26-.4-.39-1.13-.2-1.51.6-1.2.62-2.33.17-3.56-.77-2.14-.21-4.11,1.05-5.87.7-.97,1.09-1.98,1.34-3.15.46-2.12,1.12-4.2,1.72-6.29.5-1.75,1.19-3.47,1.53-5.25.41-2.19,1.2-4.18,2.27-6.1.44-.79.92-1.55.47-2.57-.15-.35.09-1,.35-1.38,1.52-2.24,3.04-4.47,4.67-6.62.91-1.2,2.03-2.23,3.08-3.32.31-.33.65-.7,1.05-.86,3.11-1.3,3.75-4.15,4.42-6.98.1-.44.17-.88.25-1.32.11.02.23.05.34.07Z" />
    <path class="e"
        d="m121.8,319.04c-.79-.61-1.69-1.26-2.52-1.98-.81-.71-1.47-1.65-2.67-1.51.29-.59.55-1.14.9-1.87.06-.02.39-.14.99-.34-1.28-.97-2.33-1.83-3.46-2.57-.23-.15-.82.03-1.12.24-.36.25-.56.72-.89,1.03-.16.14-.48.18-.71.15-.62-.08-1.24-.2-1.85-.34-.32-.08-.62-.25-.92-.38.14-.28.25-.6.44-.84.32-.41.67-.82,1.06-1.16.62-.55.67-1.11.2-1.76-.46-.64-1-.94-1.8-.54-.82.4-1.67.75-2.54,1.05-.32.11-.77.1-1.06-.05-.13-.06-.07-.62,0-.93.24-1.02.76-1.59,1.96-1.3,1.01.24,1.86-.1,2.4-1.08.39-.71.47-1.25-.46-1.55-.18-.06-.32-.24-.69-.54.55-.27.94-.54,1.37-.65.83-.22,1.34-.63,1.53-1.52.09-.44.49-.81.73-1.22.13-.22.27-.47.28-.71.04-.81.07-1.63.03-2.45-.03-.66-.06-1.35-.3-1.95-.45-1.16-1.28-1.29-2.14-.38-.3.33-.46.79-.68,1.2l-.55-.42c.24-.88.49-1.76.73-2.65.28-1.04.09-1.31-.98-1.17-1.13.15-1.47-.6-1.9-1.28.06-.08.11-.16.17-.24.44.3.87.63,1.34.89.84.46,1.11.3,1.27-.63.19-1.15.07-2.4,1.08-3.32.2-.19.05-.71.22-1,.27-.48.67-.89,1.01-1.33.27.38.71.73.78,1.14.24,1.38.37,2.78.5,4.18.37,3.95,1.47,7.73,2.75,11.46.09.26.33.47.69.99.19-.73.21-1.19.42-1.55.83-1.47.91-2.9.44-4.56-.28-1.01.19-2.23.32-3.35.14-.02.28-.04.43-.06.18.29.45.56.53.87,1.21,4.37,2.48,8.73,3.53,13.14.46,1.94,1.31,3.64,2.21,5.37.65,1.26.97,2.69,1.52,4.01.33.79.74,1.58,1.27,2.25.7.86,1.42,1.66,1.34,2.87-.01.23.06.49.17.71,1.02,1.98,2.06,3.96,3.09,5.94.13.25.3.5.35.77.05.28-.03.59-.05.89-.27-.08-.62-.09-.81-.27-1.04-.96-2.35-1.07-3.65-1.16-.77-.05-1.06-.35-1.06-1.1,0-.44-.03-.96-.25-1.31-.41-.64-.97-.96-1.77-.38-.58.41-1.29.64-2.14,1.05.1-.52.11-.79.2-1.04.28-.79.05-1.39-.66-1.8-.52-.31-1.06-.57-1.59-.86.18-.13.37-.26.55-.39-.38.39-.7.9-1.15,1.15-1.25.7-2.42-.06-2.44-1.51,0-.64.44-.97,1.47-1.03-.03.24-.11.49-.06.7.05.2.2.42.37.53.07.04.35-.15.47-.29.58-.71,1.13-1.44,1.74-2.23Zm4.41-.81c-.19,0-.37,0-.56,0-.02.35-.05.69-.07,1.04.25,0,.49,0,.74-.01-.03-.34-.07-.68-.1-1.03Z" />
    <path class="e"
        d="m197.58,254.56c.2-1.38.38-2.77.59-4.15.94-6.22,1.93-12.43,2.82-18.66.23-1.63.18-3.3.3-4.94.05-.7.19-1.39.36-2.07.06-.23.3-.56.48-.58.21-.02.54.21.65.41.34.65.7,1.32.88,2.02,2.14,8.3,5.16,16.31,7.99,24.38.35.99.5,2.05.75,3.07.16.65-.03,1.16-.66,1.36-2.27.72-4.56,1.42-6.85,2.09-.23.07-.58-.04-.78-.19-1.54-1.17-3.3-1.48-5.18-1.42-1.13.04-1.46-.32-1.36-1.31Z" />
    <path class="e"
        d="m244.75,360.65c.26-1.18.3-2.45.8-3.52,2.81-6,3.49-12.51,4.82-18.87.19-.91.59-1.81,1.08-2.6.49-.8,1.01-.7,1.31.17.21.62.32,1.3.4,1.95.48,3.91.99,7.81,1.39,11.72.48,4.68.62,9.41,1.34,14.05.53,3.42,1.62,6.78,2.7,10.09,1.53,4.68,3.33,9.27,4.93,13.93.42,1.21.6,2.53.73,3.81.09.92-2.05,2.32-2.9,1.98-.23-.09-.45-.35-.55-.59-1.44-3.44-2.99-6.84-4.24-10.35-1.23-3.48-2.2-7.05-3.16-10.62-.27-1.02-.16-2.17-.12-3.26.18-4.35-.14-8.65-1.25-12.88-.16-.61-.14-1.27-.32-1.87-.11-.36-.46-.64-.7-.96-.25.22-.57.41-.73.68-.83,1.43-1.59,2.9-2.45,4.32-.51.83-1.14,1.6-1.77,2.36-.23.27-.6.43-.9.64-.14-.06-.28-.13-.42-.19Z" />
    <path class="e"
        d="m164.63,240.14c-.3,2.61-.6,5.23-.91,7.84.11.04.22.09.32.13.38-.63.85-1.23,1.14-1.9,1.89-4.47,3.75-8.95,5.59-13.45.4-.97.63-2.01.96-3.01.16-.5.33-1.01.58-1.47.13-.23.49-.53.68-.49.23.05.52.41.55.66.19,1.81.33,3.62.46,5.43.05.76-.04,1.54.05,2.29.21,1.92.32,3.87.77,5.74.8,3.31,1.84,6.56,2.74,9.85.25.91.37,1.86.59,2.78.22.9-.21,1.21-1,1.1-1.71-.22-3.42-.42-5.11-.77-1.93-.4-3.81-1.01-5.73-1.44-1.2-.27-2.42-.39-3.65-.52-2.08-.22-2.45-.98-1.8-2.97.59-1.8.84-3.7,1.32-5.54.31-1.19.72-2.35,1.16-3.49.14-.37.53-.65.8-.98.16.07.33.13.49.2Z" />
    <path class="e"
        d="m239.39,245.24c-.1,1.2-.12,2.36-.33,3.5-.08.43-.49,1.03-.87,1.15-2.12.64-4.26,1.18-6.42,1.67-.47.11-1-.1-1.51-.16.08-.46.14-.94.26-1.39.95-3.67,1.86-7.36,2.88-11.01,1-3.56,1.05-7.22,1.28-10.86,0-.14-.02-.3.04-.42.14-.29.33-.57.49-.85.23.19.55.34.67.59.31.62.64,1.27.78,1.95.81,3.85,1.6,7.71,2.31,11.57.26,1.41.28,2.86.4,4.26Z" />
    <path class="e"
        d="m178.89,253.65c.42-3.37.83-6.75,1.26-10.12.26-2.05.55-4.1.83-6.15.02-.17,0-.38.08-.52.23-.35.51-.66.77-.98.21.37.53.71.62,1.1.64,2.84,1.04,5.75,1.89,8.52.6,1.95,1.83,3.71,2.7,5.59.48,1.05.79,2.17,1.18,3.26.32.91-.15,1.23-.96,1.3-.63.06-1.3-.01-1.88.18-.68.22-1.34.59-1.9,1.03-.65.51-1.34,1.22-2.13.77-.99-.57-2.38-.96-2.29-2.58.03-.46,0-.91,0-1.37-.07,0-.14-.02-.2-.02Z" />
    <path class="e"
        d="m216.92,235.22c.31.43.74.82.91,1.3.88,2.48,1.83,4.95,2.48,7.5.66,2.58,1.01,5.23,1.48,7.86.16.91-.19,1.51-1.14,1.67-1.63.27-3.25.57-4.88.79-.86.11-.99-.58-.93-1.2.19-1.99.4-3.98.69-5.96.43-2.98,1.1-5.93.61-9-.15-.91.19-1.9.31-2.85.16-.04.32-.07.48-.11Z" />
    <path class="e"
        d="m132.44,332.94c.88-1.75-1.36-1.95-1.25-3.45.39.12.78.15,1.06.34.68.47,1.17.46,1.86-.12.5-.42,1.3-.49,1.98-.65.34-.08.71.02,1.24.04-.44-.6-.74-1.02-1.11-1.53-.67.3-.9,0-.82-.81.22-2.34.37-4.68.56-7.02.03-.39.1-.77.19-1.42,1.27,1.39,1.38,2.87,1.5,4.31.11,1.29.06,2.6.23,3.89.1.73.58,1.4.74,2.13.11.52.11,1.16-.1,1.64-.24.56-.31.87.15,1.36,1.09,1.18.87,2.76,1.09,4.2.06.41,0,.84.02,1.27.04,1.3-.85,1.95-2.06,1.41-.7-.31-1.33-.78-1.95-1.24-.17-.13-.3-.53-.23-.71.44-1.12-.04-1.8-.73-2.7-.66-.86-1.24-1.19-2.38-.94Z" />
    <path class="e"
        d="m249.59,243.83c-.36,2.57-.69,5.15-1.11,7.71-.07.41-.46.95-.83,1.09-1.47.57-2.98,1.02-4.49,1.47-.24.07-.69-.06-.81-.25-.12-.18-.03-.6.11-.85.95-1.74,1.49-3.74,3.15-5.04.22-.18.39-.53.43-.82.23-1.69.96-3.15,1.94-4.51.24-.33.63-.55.95-.83.19.39.41.77.54,1.18.08.26.02.56.02.84.04,0,.07,0,.11.01Z" />
    <path class="e"
        d="m135.82,248.65c.43-2.4.79-4.51,1.19-6.61.13-.71.58-.83,1-.27.39.52.67,1.14.88,1.76.24.69.3,1.45.51,2.15.21.7.51,1.28,1.46,1.22.29-.02.8.46.9.8.36,1.14.58,2.32.86,3.48.19.78-.02,1.26-.89.95-1.58-.56-3.18-1.11-4.68-1.86-.58-.29-.88-1.13-1.24-1.62Z" />
    <path class="e"
        d="m148.26,246.23c.03-.18.04-.32.09-.45.73-2.24,1.45-4.48,2.22-6.7.11-.31.46-.54.7-.81.22.3.58.57.63.89.55,3.33,1.06,6.66,1.53,10,.03.19-.42.66-.55.62-1.75-.45-3.5-.95-4.38-2.78-.12-.25-.17-.53-.24-.77Z" />
    <path class="e"
        d="m153.56,255.15c-1.76-.31-3.54-.54-5.27-.94-1.26-.29-1.44-.78-1.13-2.01.19-.75.29-1.52.47-2.27.22-.91.55-1.02,1.33-.58,1.06.61,2.15,1.18,3.24,1.74,1.11.56,1.99,1.3,2.39,2.53.36,1.13.18,1.4-1.02,1.53Z" />
    <path class="e"
        d="m228.95,255.29c.35-.29.44-.41.55-.46,2.52-.99,5.02-2.02,7.56-2.95,1.81-.66,2.11-.36,1.81,1.57-.11.74-.32,1.37-1.22,1.47-2.2.24-4.4.53-6.6.72-.61.05-1.25-.2-2.11-.35Z" />
    <path class="e"
        d="m410.81,358.77c-1.48-1.24-2.87-2.59-4.43-3.67-1.57-1.08-3.32-1.91-4.96-2.83,3.27-1.64,9.29,2.46,9.39,6.5Z" />
    <path class="e"
        d="m228.55,388.95c-1.35-.21-2.54-.33-3.7-.61-.39-.1-.69-.59-1.03-.9.35-.29.68-.77,1.06-.81.67-.08,1.39.04,2.05.22.95.25,1.69.15,2.55-.43.53-.35,1.58-.31,2.18-.02.88.42.72,1.48-.21,1.81-.98.34-2.02.52-2.9.74Z" />
    <path class="e"
        d="m78.87,311.98c-5.13,2.99-9.95,6.6-16.07,7.57,2.64-1.26,5.29-2.5,7.91-3.8,2.67-1.33,5.3-2.72,7.95-4.09.07.11.14.22.21.32Z" />
    <path class="e"
        d="m140.23,314.42c-1.36-.93-2.52-2.01-3.18-3.51-.13-.29.04-.7.07-1.06.35.06.79.02,1.05.21,1.44,1.07,1.99,2.59,2.06,4.36Z" />
    <path class="e"
        d="m253.29,249.86c-.02,1.27-1.72,2.43-2.91,1.91-.17-.07-.3-.74-.18-.87.61-.62,1.26-1.23,1.99-1.71.72-.48,1.11-.2,1.1.66Z" />
    <path class="e" d="m241.01,275.5c-.67,1.62-.58,3.37-1.85,4.7-.72-1.85.1-4.03,1.85-4.7Z" />
    <path class="e"
        d="m102.72,226.28c-.38,2.17-.71,4.12-1.08,6.24-.74-.56-.89-.86-.54-1.6.42-.89.43-1.96.63-2.96.07-.38.1-.79.27-1.12.12-.24.46-.37.72-.57Z" />
    <path class="e" d="m108.47,246.48c1.05,2.19,2.09,4.39,3.14,6.58-1.87-1.79-2.79-4.06-3.14-6.58Z" />
    <path class="e" d="m108.08,244.67c-1.25-1.13-1.87-2.48-1.87-4.07.11-.04.22-.08.34-.13.51,1.4,1.02,2.8,1.53,4.2Z" />
    <path class="e"
        d="m106.05,299.98c-.5.41-.88.77-1.32,1.01-.11.06-.44-.27-.68-.43.42-.52.83-1.05,1.25-1.57.19.25.38.5.75.99Z" />
    <path class="e"
        d="m103.45,230.05c.42,1.76.85,3.51,1.27,5.27-.11.03-.22.05-.32.08-.43-1.75-.87-3.51-1.3-5.26l.35-.09Z" />
    <path class="e"
        d="m110.87,298.87c-.48.11-.95.22-1.44.28-.03,0-.12-.47-.18-.71.51-.04,1.01-.08,1.52-.13.03.19.06.37.1.56Z" />
    <path class="e"
        d="m80.04,314.47c-.47.32-.72.58-1.01.65-.15.04-.38-.25-.57-.4.22-.22.41-.52.68-.62.16-.06.44.17.9.37Z" />
    <path class="e"
        d="m161.23,255.73c-.39-.16-.77-.31-1.16-.47.06-.14.16-.42.19-.41.4.08.79.21,1.18.32-.07.19-.14.37-.21.56Z" />
</svg>