<?xml version="1.0" encoding="UTF-8"?><svg id="a" xmlns="http://www.w3.org/2000/svg" viewBox="0 0 440 440"><defs><style>.b{stroke-width:2px;}.b,.c{fill:none;stroke:#eee;stroke-miterlimit:10;}</style></defs><polyline class="b" points="0 20 0 0 20 0"/><polyline class="b" points="420 0 440 0 440 20"/><polyline class="b" points="440 420 440 440 420 440"/><polyline class="b" points="0 420 0 440 20 440"/><polyline class="c" points="220 200 220 220 240 220 220 220 220 240 220 220 200 220"/><g><line class="b" x1="240" x2="220"/><line class="b" x1="220" x2="200"/><line class="c" x1="220" y1="0" x2="220" y2="20"/><line class="b" x1="240" y1="440" x2="200" y2="440"/><line class="c" x1="220.5" y1="420" x2="220.5" y2="440"/></g><g><line class="b" x1="440" y1="240" x2="440" y2="220"/><line class="b" x1="440" y1="220" x2="440" y2="200"/><line class="c" x1="440" y1="220" x2="420" y2="220"/><line class="b" x1="0" y1="240" x2="0" y2="200"/><line class="c" x1="20" y1="220.5" x2="0" y2="220.5"/></g></svg>